<?xml version="1.0" encoding="utf-8"?>
<!-- Generator: Adobe Illustrator 25.0.0, SVG Export Plug-In . SVG Version: 6.00 Build 0)  -->
<svg version="1.1" id="Layer_1" xmlns="http://www.w3.org/2000/svg" xmlns:xlink="http://www.w3.org/1999/xlink" x="0px" y="0px"
	 viewBox="0 0 1000 1000" style="enable-background:new 0 0 1000 1000;" xml:space="preserve">
<style type="text/css">
	.st0{fill-rule:evenodd;clip-rule:evenodd;}
</style>
<g>
	<path class="st0" d="M477.8,244.1v-99.5c-634.5,25.8-639.5,706.5,0,709.7l0.5-97.8C-17.7,749.2-39.3,266.5,477.8,244.1L477.8,244.1
		z"/>
	<polygon class="st0" points="297.3,656 404.7,655.7 404.3,450.5 477.1,451 477.2,343.5 218.9,343.1 219.3,451 297.3,451.5 
		297.3,656 	"/>
	<g>
		<path d="M999.1,445.3l-367.6,0.2L630,255.6c71.3,5.7,151.2,33.9,198.5,87.5l140.2-0.5C864.7,208.2,722.6,137.3,526.6,143
			l-0.2,714.4C845,828.8,1014,715.5,999.1,445.3z M628.3,732.7V545l267.3,0.3C870.3,653.4,784.8,704.9,628.3,732.7z"/>
	</g>
</g>
</svg>
